<svg baseProfile="full" height="849" version="1.1" width="750" xmlns="http://www.w3.org/2000/svg" xmlns:ev="http://www.w3.org/2001/xml-events" xmlns:xlink="http://www.w3.org/1999/xlink"><defs /><g><rect fill="#CD3F85" fill-opacity="0.15" height="146" width="142" x="63" y="0" /><line stroke="#CD3F85" stroke-dasharray="5 5" stroke-width="0.5" x1="63" x2="63" y1="0" y2="138" /><line stroke="#CD3F85" stroke-dasharray="5 5" stroke-width="0.5" x1="205" x2="205" y1="0" y2="138" /><line stroke="#CD3F85" stroke-width="0.75" x1="63" x2="205" y1="10" y2="10" /><text fill="#CD3F85" font-family="Helvetica" font-size="8pt" stroke="none" text-anchor="middle" x="134.0" y="8">1st and 2nd republic</text><rect fill="#C00023" fill-opacity="0.15" height="146" width="22" x="205" y="0" /><line stroke="#C00023" stroke-dasharray="5 5" stroke-width="0.5" x1="205" x2="205" y1="0" y2="138" /><line stroke="#C00023" stroke-dasharray="5 5" stroke-width="0.5" x1="227" x2="227" y1="0" y2="138" /><line stroke="#C00023" stroke-width="0.75" x1="205" x2="227" y1="10" y2="10" /><text fill="#C00023" font-family="Helvetica" font-size="8pt" stroke="none" text-anchor="middle" x="216.0" y="8" /><rect fill="#C0C000" fill-opacity="0.15" height="146" width="197" x="227" y="0" /><line stroke="#C0C000" stroke-dasharray="5 5" stroke-width="0.5" x1="227" x2="227" y1="0" y2="138" /><line stroke="#C0C000" stroke-dasharray="5 5" stroke-width="0.5" x1="424" x2="424" y1="0" y2="138" /><line stroke="#C0C000" stroke-width="0.75" x1="227" x2="424" y1="10" y2="10" /><text fill="#C0C000" font-family="Helvetica" font-size="8pt" stroke="none" text-anchor="middle" x="325.5" y="8">3rd and 4th republic</text><rect fill="#C000FF" fill-opacity="0.15" height="146" width="77" x="424" y="0" /><line stroke="#C000FF" stroke-dasharray="5 5" stroke-width="0.5" x1="424" x2="424" y1="0" y2="138" /><line stroke="#C000FF" stroke-dasharray="5 5" stroke-width="0.5" x1="501" x2="501" y1="0" y2="138" /><line stroke="#C000FF" stroke-width="0.75" x1="424" x2="501" y1="10" y2="10" /><text fill="#C000FF" font-family="Helvetica" font-size="8pt" stroke="none" text-anchor="middle" x="462.5" y="8">5th republic</text><rect fill="#00C0FF" fill-opacity="0.15" height="146" width="187" x="501" y="0" /><line stroke="#00C0FF" stroke-dasharray="5 5" stroke-width="0.5" x1="501" x2="501" y1="0" y2="138" /><line stroke="#00C0FF" stroke-dasharray="5 5" stroke-width="0.5" x1="688" x2="688" y1="0" y2="138" /><line stroke="#00C0FF" stroke-width="0.75" x1="501" x2="688" y1="10" y2="10" /><text fill="#00C0FF" font-family="Helvetica" font-size="8pt" stroke="none" text-anchor="middle" x="594.5" y="8">6th republic</text></g><g transform="translate(0,138)"><g><text fill="#000000" font-family="Helvetica" font-size="8pt" stroke="none" text-anchor="end" transform="translate(12, 0)" writing-mode="lr" x="63" y="24">1948</text><text fill="#C0C0C0" font-family="Helvetica" font-size="8pt" stroke="none" text-anchor="end" transform="translate(12, 0)" writing-mode="lr" x="125" y="24">1953</text><text fill="#C0C0C0" font-family="Helvetica" font-size="8pt" stroke="none" text-anchor="end" transform="translate(12, 0)" writing-mode="lr" x="188" y="24">1959</text><text fill="#000000" font-family="Helvetica" font-size="8pt" stroke="none" text-anchor="end" transform="translate(12, 0)" writing-mode="lr" x="205" y="40">1961</text><line stroke="#000000" stroke-dasharray="3 3" stroke-width="0.75" x1="205" x2="205" y1="0" y2="25" /><text fill="#000000" font-family="Helvetica" font-size="8pt" stroke="none" text-anchor="end" transform="translate(12, 0)" writing-mode="lr" x="227" y="56">1963</text><line stroke="#000000" stroke-dasharray="3 3" stroke-width="0.75" x1="227" x2="227" y1="0" y2="41" /><text fill="#C0C0C0" font-family="Helvetica" font-size="8pt" stroke="none" text-anchor="end" transform="translate(12, 0)" writing-mode="lr" x="250" y="72">1965</text><line stroke="#C0C0C0" stroke-dasharray="3 3" stroke-width="0.75" x1="250" x2="250" y1="0" y2="57" /><text fill="#C0C0C0" font-family="Helvetica" font-size="8pt" stroke="none" text-anchor="end" transform="translate(12, 0)" writing-mode="lr" x="313" y="24">1970</text><text fill="#C0C0C0" font-family="Helvetica" font-size="8pt" stroke="none" text-anchor="end" transform="translate(12, 0)" writing-mode="lr" x="375" y="24">1976</text><text fill="#000000" font-family="Helvetica" font-size="8pt" stroke="none" text-anchor="end" transform="translate(12, 0)" writing-mode="lr" x="402" y="40">1979</text><line stroke="#000000" stroke-dasharray="3 3" stroke-width="0.75" x1="402" x2="402" y1="0" y2="25" /><text fill="#000000" font-family="Helvetica" font-size="8pt" stroke="none" text-anchor="end" transform="translate(12, 0)" writing-mode="lr" x="424" y="56">1981</text><line stroke="#000000" stroke-dasharray="3 3" stroke-width="0.75" x1="424" x2="424" y1="0" y2="41" /><text fill="#C0C0C0" font-family="Helvetica" font-size="8pt" stroke="none" text-anchor="end" transform="translate(12, 0)" writing-mode="lr" x="438" y="72">1982</text><line stroke="#C0C0C0" stroke-dasharray="3 3" stroke-width="0.75" x1="438" x2="438" y1="0" y2="57" /><text fill="#000000" font-family="Helvetica" font-size="8pt" stroke="none" text-anchor="end" transform="translate(12, 0)" writing-mode="lr" x="490" y="24">1987</text><text fill="#C0C0C0" font-family="Helvetica" font-size="8pt" stroke="none" text-anchor="end" transform="translate(12, 0)" writing-mode="lr" x="500" y="40">1987</text><line stroke="#C0C0C0" stroke-dasharray="3 3" stroke-width="0.75" x1="500" x2="500" y1="0" y2="25" /><text fill="#000000" font-family="Helvetica" font-size="8pt" stroke="none" text-anchor="end" transform="translate(12, 0)" writing-mode="lr" x="501" y="56">1988</text><line stroke="#000000" stroke-dasharray="3 3" stroke-width="0.75" x1="501" x2="501" y1="0" y2="41" /><text fill="#000000" font-family="Helvetica" font-size="8pt" stroke="none" text-anchor="end" transform="translate(12, 0)" writing-mode="lr" x="556" y="24">1993</text><text fill="#C0C0C0" font-family="Helvetica" font-size="8pt" stroke="none" text-anchor="end" transform="translate(12, 0)" writing-mode="lr" x="563" y="40">1993</text><line stroke="#C0C0C0" stroke-dasharray="3 3" stroke-width="0.75" x1="563" x2="563" y1="0" y2="25" /><text fill="#000000" font-family="Helvetica" font-size="8pt" stroke="none" text-anchor="end" transform="translate(12, 0)" writing-mode="lr" x="611" y="24">1998</text><text fill="#C0C0C0" font-family="Helvetica" font-size="8pt" stroke="none" text-anchor="end" transform="translate(12, 0)" writing-mode="lr" x="625" y="40">1999</text><line stroke="#C0C0C0" stroke-dasharray="3 3" stroke-width="0.75" x1="625" x2="625" y1="0" y2="25" /><text fill="#000000" font-family="Helvetica" font-size="8pt" stroke="none" text-anchor="end" transform="translate(12, 0)" writing-mode="lr" x="666" y="24">2003</text><text fill="#000000" font-family="Helvetica" font-size="8pt" stroke="none" text-anchor="end" transform="translate(12, 0)" writing-mode="lr" x="688" y="40">2005</text><line stroke="#000000" stroke-dasharray="3 3" stroke-width="0.75" x1="688" x2="688" y1="0" y2="25" /></g><g><line stroke="#000000" stroke-width="3" x1="0" x2="750" y1="0" y2="0" /><line stroke="#000000" stroke-width="2" x1="63" x2="63" y1="-5" y2="5" /><line stroke="#000000" stroke-width="2" x1="688" x2="688" y1="-5" y2="5" /><line stroke="#000000" stroke-width="2" x1="125" x2="125" y1="-5" y2="5" /><line stroke="#000000" stroke-width="2" x1="188" x2="188" y1="-5" y2="5" /><line stroke="#000000" stroke-width="2" x1="250" x2="250" y1="-5" y2="5" /><line stroke="#000000" stroke-width="2" x1="313" x2="313" y1="-5" y2="5" /><line stroke="#000000" stroke-width="2" x1="375" x2="375" y1="-5" y2="5" /><line stroke="#000000" stroke-width="2" x1="438" x2="438" y1="-5" y2="5" /><line stroke="#000000" stroke-width="2" x1="500" x2="500" y1="-5" y2="5" /><line stroke="#000000" stroke-width="2" x1="563" x2="563" y1="-5" y2="5" /><line stroke="#000000" stroke-width="2" x1="625" x2="625" y1="-5" y2="5" /></g><g><path d="M205,0 L205,-24 L189,-24" fill="none" stroke="#000000" stroke-width="1" /><text fill="#000000" font-family="Helvetica" font-size="8pt" stroke="none" text-anchor="end" x="185" y="-22">Coup of May Sixteenth</text><circle cx="205" cy="0" fill="white" r="4" stroke="#000000" stroke-width="1" /><path d="M402,0 L402,-24 L386,-24" fill="none" stroke="#000000" stroke-width="1" /><text fill="#000000" font-family="Helvetica" font-size="8pt" stroke="none" text-anchor="end" x="382" y="-22">Coup of December Twelfth</text><circle cx="402" cy="0" fill="white" r="4" stroke="#000000" stroke-width="1" /><path d="M490,0 L490,-40 L474,-40" fill="none" stroke="#000000" stroke-width="1" /><text fill="#000000" font-family="Helvetica" font-size="8pt" stroke="none" text-anchor="end" x="470" y="-38">Struggl of June</text><circle cx="490" cy="0" fill="white" r="4" stroke="#000000" stroke-width="1" /><path d="M501,0 L501,-56 L485,-56" fill="none" stroke="#000000" stroke-width="1" /><text fill="#000000" font-family="Helvetica" font-size="8pt" stroke="none" text-anchor="end" x="481" y="-54">Roh Tae-woo became president</text><circle cx="501" cy="0" fill="white" r="4" stroke="#000000" stroke-width="1" /><path d="M556,0 L556,-72 L540,-72" fill="none" stroke="#000000" stroke-width="1" /><text fill="#000000" font-family="Helvetica" font-size="8pt" stroke="none" text-anchor="end" x="536" y="-70">Kim Young-sam became president</text><circle cx="556" cy="0" fill="white" r="4" stroke="#000000" stroke-width="1" /><path d="M611,0 L611,-88 L595,-88" fill="none" stroke="#000000" stroke-width="1" /><text fill="#000000" font-family="Helvetica" font-size="8pt" stroke="none" text-anchor="end" x="591" y="-86">Kim Dae-jung became president</text><circle cx="611" cy="0" fill="white" r="4" stroke="#000000" stroke-width="1" /><path d="M666,0 L666,-104 L650,-104" fill="none" stroke="#000000" stroke-width="1" /><text fill="#000000" font-family="Helvetica" font-size="8pt" stroke="none" text-anchor="end" x="646" y="-102">Roh Moo-hyun became president</text><circle cx="666" cy="0" fill="white" r="4" stroke="#000000" stroke-width="1" /></g></g></svg>