<svg baseProfile="full" height="785.0" version="1.1" width="750" xmlns="http://www.w3.org/2000/svg" xmlns:ev="http://www.w3.org/2001/xml-events" xmlns:xlink="http://www.w3.org/1999/xlink"><defs /><g><rect fill="#CD3F85" fill-opacity="0.15" height="86.0" width="142" x="63" y="0" /><line stroke="#CD3F85" stroke-dasharray="5 5" stroke-width="0.5" x1="63" x2="63" y1="0" y2="80" /><line stroke="#CD3F85" stroke-dasharray="5 5" stroke-width="0.5" x1="205" x2="205" y1="0" y2="80" /><line stroke="#CD3F85" stroke-width="0.75" x1="63" x2="205" y1="10" y2="10" /><text fill="#CD3F85" font-family="Helvetica" font-size="6pt" stroke="none" text-anchor="middle" x="134.0" y="8.5">1st and 2nd republic</text><rect fill="#C00023" fill-opacity="0.15" height="86.0" width="22" x="205" y="0" /><line stroke="#C00023" stroke-dasharray="5 5" stroke-width="0.5" x1="205" x2="205" y1="0" y2="80" /><line stroke="#C00023" stroke-dasharray="5 5" stroke-width="0.5" x1="227" x2="227" y1="0" y2="80" /><line stroke="#C00023" stroke-width="0.75" x1="205" x2="227" y1="10" y2="10" /><text fill="#C00023" font-family="Helvetica" font-size="6pt" stroke="none" text-anchor="middle" x="216.0" y="8.5" /><rect fill="#C0C000" fill-opacity="0.15" height="86.0" width="197" x="227" y="0" /><line stroke="#C0C000" stroke-dasharray="5 5" stroke-width="0.5" x1="227" x2="227" y1="0" y2="80" /><line stroke="#C0C000" stroke-dasharray="5 5" stroke-width="0.5" x1="424" x2="424" y1="0" y2="80" /><line stroke="#C0C000" stroke-width="0.75" x1="227" x2="424" y1="10" y2="10" /><text fill="#C0C000" font-family="Helvetica" font-size="6pt" stroke="none" text-anchor="middle" x="325.5" y="8.5">3rd and 4th republic</text><rect fill="#C000FF" fill-opacity="0.15" height="86.0" width="77" x="424" y="0" /><line stroke="#C000FF" stroke-dasharray="5 5" stroke-width="0.5" x1="424" x2="424" y1="0" y2="80" /><line stroke="#C000FF" stroke-dasharray="5 5" stroke-width="0.5" x1="501" x2="501" y1="0" y2="80" /><line stroke="#C000FF" stroke-width="0.75" x1="424" x2="501" y1="10" y2="10" /><text fill="#C000FF" font-family="Helvetica" font-size="6pt" stroke="none" text-anchor="middle" x="462.5" y="8.5">5th republic</text><rect fill="#00C0FF" fill-opacity="0.15" height="86.0" width="187" x="501" y="0" /><line stroke="#00C0FF" stroke-dasharray="5 5" stroke-width="0.5" x1="501" x2="501" y1="0" y2="80" /><line stroke="#00C0FF" stroke-dasharray="5 5" stroke-width="0.5" x1="688" x2="688" y1="0" y2="80" /><line stroke="#00C0FF" stroke-width="0.75" x1="501" x2="688" y1="10" y2="10" /><text fill="#00C0FF" font-family="Helvetica" font-size="6pt" stroke="none" text-anchor="middle" x="594.5" y="8.5">6th republic</text></g><g transform="translate(0,80)"><g><text fill="#000000" font-family="Helvetica" font-size="6pt" stroke="none" text-anchor="end" transform="translate(8, 0)" writing-mode="lr" x="63" y="15">1948</text><text fill="#C0C0C0" font-family="Helvetica" font-size="6pt" stroke="none" text-anchor="end" transform="translate(8, 0)" writing-mode="lr" x="125" y="15">1953</text><text fill="#C0C0C0" font-family="Helvetica" font-size="6pt" stroke="none" text-anchor="end" transform="translate(8, 0)" writing-mode="lr" x="188" y="15">1959</text><text fill="#000000" font-family="Helvetica" font-size="6pt" stroke="none" text-anchor="end" transform="translate(8, 0)" writing-mode="lr" x="205" y="25">1961</text><line stroke="#000000" stroke-dasharray="3 3" stroke-width="0.75" x1="205" x2="205" y1="0" y2="14" /><text fill="#000000" font-family="Helvetica" font-size="6pt" stroke="none" text-anchor="end" transform="translate(8, 0)" writing-mode="lr" x="227" y="15">1963</text><text fill="#C0C0C0" font-family="Helvetica" font-size="6pt" stroke="none" text-anchor="end" transform="translate(8, 0)" writing-mode="lr" x="250" y="15">1965</text><text fill="#C0C0C0" font-family="Helvetica" font-size="6pt" stroke="none" text-anchor="end" transform="translate(8, 0)" writing-mode="lr" x="313" y="15">1970</text><text fill="#C0C0C0" font-family="Helvetica" font-size="6pt" stroke="none" text-anchor="end" transform="translate(8, 0)" writing-mode="lr" x="375" y="15">1976</text><text fill="#000000" font-family="Helvetica" font-size="6pt" stroke="none" text-anchor="end" transform="translate(8, 0)" writing-mode="lr" x="402" y="15">1979</text><text fill="#000000" font-family="Helvetica" font-size="6pt" stroke="none" text-anchor="end" transform="translate(8, 0)" writing-mode="lr" x="424" y="15">1981</text><text fill="#C0C0C0" font-family="Helvetica" font-size="6pt" stroke="none" text-anchor="end" transform="translate(8, 0)" writing-mode="lr" x="438" y="25">1982</text><line stroke="#C0C0C0" stroke-dasharray="3 3" stroke-width="0.75" x1="438" x2="438" y1="0" y2="14" /><text fill="#000000" font-family="Helvetica" font-size="6pt" stroke="none" text-anchor="end" transform="translate(8, 0)" writing-mode="lr" x="490" y="15">1987</text><text fill="#C0C0C0" font-family="Helvetica" font-size="6pt" stroke="none" text-anchor="end" transform="translate(8, 0)" writing-mode="lr" x="500" y="25">1987</text><line stroke="#C0C0C0" stroke-dasharray="3 3" stroke-width="0.75" x1="500" x2="500" y1="0" y2="14" /><text fill="#000000" font-family="Helvetica" font-size="6pt" stroke="none" text-anchor="end" transform="translate(8, 0)" writing-mode="lr" x="501" y="35">1988</text><line stroke="#000000" stroke-dasharray="3 3" stroke-width="0.75" x1="501" x2="501" y1="0" y2="24" /><text fill="#000000" font-family="Helvetica" font-size="6pt" stroke="none" text-anchor="end" transform="translate(8, 0)" writing-mode="lr" x="556" y="15">1993</text><text fill="#C0C0C0" font-family="Helvetica" font-size="6pt" stroke="none" text-anchor="end" transform="translate(8, 0)" writing-mode="lr" x="563" y="25">1993</text><line stroke="#C0C0C0" stroke-dasharray="3 3" stroke-width="0.75" x1="563" x2="563" y1="0" y2="14" /><text fill="#000000" font-family="Helvetica" font-size="6pt" stroke="none" text-anchor="end" transform="translate(8, 0)" writing-mode="lr" x="611" y="15">1998</text><text fill="#C0C0C0" font-family="Helvetica" font-size="6pt" stroke="none" text-anchor="end" transform="translate(8, 0)" writing-mode="lr" x="625" y="25">1999</text><line stroke="#C0C0C0" stroke-dasharray="3 3" stroke-width="0.75" x1="625" x2="625" y1="0" y2="14" /><text fill="#000000" font-family="Helvetica" font-size="6pt" stroke="none" text-anchor="end" transform="translate(8, 0)" writing-mode="lr" x="666" y="15">2003</text><text fill="#000000" font-family="Helvetica" font-size="6pt" stroke="none" text-anchor="end" transform="translate(8, 0)" writing-mode="lr" x="688" y="15">2005</text></g><g><line stroke="#000000" stroke-width="3" x1="0" x2="750" y1="0" y2="0" /><line stroke="#000000" stroke-width="2" x1="63" x2="63" y1="-5" y2="5" /><line stroke="#000000" stroke-width="2" x1="688" x2="688" y1="-5" y2="5" /><line stroke="#000000" stroke-width="2" x1="125" x2="125" y1="-5" y2="5" /><line stroke="#000000" stroke-width="2" x1="188" x2="188" y1="-5" y2="5" /><line stroke="#000000" stroke-width="2" x1="250" x2="250" y1="-5" y2="5" /><line stroke="#000000" stroke-width="2" x1="313" x2="313" y1="-5" y2="5" /><line stroke="#000000" stroke-width="2" x1="375" x2="375" y1="-5" y2="5" /><line stroke="#000000" stroke-width="2" x1="438" x2="438" y1="-5" y2="5" /><line stroke="#000000" stroke-width="2" x1="500" x2="500" y1="-5" y2="5" /><line stroke="#000000" stroke-width="2" x1="563" x2="563" y1="-5" y2="5" /><line stroke="#000000" stroke-width="2" x1="625" x2="625" y1="-5" y2="5" /></g><g><path d="M205,0 L205,-15 L195,-15" fill="none" stroke="#000000" stroke-width="1" /><text fill="#000000" font-family="Helvetica" font-size="6pt" stroke="none" text-anchor="end" x="192" y="-13.5">Coup of May Sixteenth</text><circle cx="205" cy="0" fill="white" r="4" stroke="#000000" stroke-width="1" /><path d="M402,0 L402,-15 L392,-15" fill="none" stroke="#000000" stroke-width="1" /><text fill="#000000" font-family="Helvetica" font-size="6pt" stroke="none" text-anchor="end" x="389" y="-13.5">Coup of December Twelfth</text><circle cx="402" cy="0" fill="white" r="4" stroke="#000000" stroke-width="1" /><path d="M490,0 L490,-15 L480,-15" fill="none" stroke="#000000" stroke-width="1" /><text fill="#000000" font-family="Helvetica" font-size="6pt" stroke="none" text-anchor="end" x="477" y="-13.5">Struggl of June</text><circle cx="490" cy="0" fill="white" r="4" stroke="#000000" stroke-width="1" /><path d="M501,0 L501,-25 L491,-25" fill="none" stroke="#000000" stroke-width="1" /><text fill="#000000" font-family="Helvetica" font-size="6pt" stroke="none" text-anchor="end" x="488" y="-23.5">Roh Tae-woo became president</text><circle cx="501" cy="0" fill="white" r="4" stroke="#000000" stroke-width="1" /><path d="M556,0 L556,-35 L546,-35" fill="none" stroke="#000000" stroke-width="1" /><text fill="#000000" font-family="Helvetica" font-size="6pt" stroke="none" text-anchor="end" x="543" y="-33.5">Kim Young-sam became president</text><circle cx="556" cy="0" fill="white" r="4" stroke="#000000" stroke-width="1" /><path d="M611,0 L611,-45 L601,-45" fill="none" stroke="#000000" stroke-width="1" /><text fill="#000000" font-family="Helvetica" font-size="6pt" stroke="none" text-anchor="end" x="598" y="-43.5">Kim Dae-jung became president</text><circle cx="611" cy="0" fill="white" r="4" stroke="#000000" stroke-width="1" /><path d="M666,0 L666,-55 L656,-55" fill="none" stroke="#000000" stroke-width="1" /><text fill="#000000" font-family="Helvetica" font-size="6pt" stroke="none" text-anchor="end" x="653" y="-53.5">Roh Moo-hyun became president</text><circle cx="666" cy="0" fill="white" r="4" stroke="#000000" stroke-width="1" /></g></g></svg>