<svg baseProfile="full" height="825.0" version="1.1" width="750" xmlns="http://www.w3.org/2000/svg" xmlns:ev="http://www.w3.org/2001/xml-events" xmlns:xlink="http://www.w3.org/1999/xlink"><defs /><g><rect fill="#C00023" fill-opacity="0.15" height="126.0" width="625" x="63" y="0" /><line stroke="#C00023" stroke-dasharray="5 5" stroke-width="0.5" x1="63" x2="63" y1="0" y2="120" /><line stroke="#C00023" stroke-dasharray="5 5" stroke-width="0.5" x1="688" x2="688" y1="0" y2="120" /><line stroke="#C00023" stroke-width="0.75" x1="63" x2="688" y1="10" y2="10" /><text fill="#C00023" font-family="Helvetica" font-size="10pt" stroke="none" text-anchor="middle" x="375.5" y="8.5">17C</text></g><g transform="translate(0,120)"><g><text fill="#000000" font-family="Helvetica" font-size="10pt" stroke="none" text-anchor="end" transform="translate(8, 0)" writing-mode="lr" x="63" y="15">1601</text><text fill="#000000" font-family="Helvetica" font-size="10pt" stroke="none" text-anchor="end" transform="translate(8, 0)" writing-mode="lr" x="107" y="15">1608</text><text fill="#000000" font-family="Helvetica" font-size="10pt" stroke="none" text-anchor="end" transform="translate(8, 0)" writing-mode="lr" x="119" y="25">1610</text><line stroke="#000000" stroke-dasharray="3 3" stroke-width="0.75" x1="119" x2="119" y1="0" y2="14" /><text fill="#C0C0C0" font-family="Helvetica" font-size="10pt" stroke="none" text-anchor="end" transform="translate(8, 0)" writing-mode="lr" x="125" y="35">1610</text><line stroke="#C0C0C0" stroke-dasharray="3 3" stroke-width="0.75" x1="125" x2="125" y1="0" y2="24" /><text fill="#000000" font-family="Helvetica" font-size="10pt" stroke="none" text-anchor="end" transform="translate(8, 0)" writing-mode="lr" x="176" y="15">1619</text><text fill="#C0C0C0" font-family="Helvetica" font-size="10pt" stroke="none" text-anchor="end" transform="translate(8, 0)" writing-mode="lr" x="188" y="25">1620</text><line stroke="#C0C0C0" stroke-dasharray="3 3" stroke-width="0.75" x1="188" x2="188" y1="0" y2="14" /><text fill="#C0C0C0" font-family="Helvetica" font-size="10pt" stroke="none" text-anchor="end" transform="translate(8, 0)" writing-mode="lr" x="250" y="15">1630</text><text fill="#000000" font-family="Helvetica" font-size="10pt" stroke="none" text-anchor="end" transform="translate(8, 0)" writing-mode="lr" x="290" y="15">1637</text><text fill="#C0C0C0" font-family="Helvetica" font-size="10pt" stroke="none" text-anchor="end" transform="translate(8, 0)" writing-mode="lr" x="313" y="15">1640</text><text fill="#000000" font-family="Helvetica" font-size="10pt" stroke="none" text-anchor="end" transform="translate(8, 0)" writing-mode="lr" x="328" y="25">1643</text><line stroke="#000000" stroke-dasharray="3 3" stroke-width="0.75" x1="328" x2="328" y1="0" y2="14" /><text fill="#C0C0C0" font-family="Helvetica" font-size="10pt" stroke="none" text-anchor="end" transform="translate(8, 0)" writing-mode="lr" x="375" y="15">1650</text><text fill="#C0C0C0" font-family="Helvetica" font-size="10pt" stroke="none" text-anchor="end" transform="translate(8, 0)" writing-mode="lr" x="438" y="15">1660</text><text fill="#000000" font-family="Helvetica" font-size="10pt" stroke="none" text-anchor="end" transform="translate(8, 0)" writing-mode="lr" x="448" y="25">1662</text><line stroke="#000000" stroke-dasharray="3 3" stroke-width="0.75" x1="448" x2="448" y1="0" y2="14" /><text fill="#C0C0C0" font-family="Helvetica" font-size="10pt" stroke="none" text-anchor="end" transform="translate(8, 0)" writing-mode="lr" x="500" y="15">1670</text><text fill="#000000" font-family="Helvetica" font-size="10pt" stroke="none" text-anchor="end" transform="translate(8, 0)" writing-mode="lr" x="511" y="25">1672</text><line stroke="#000000" stroke-dasharray="3 3" stroke-width="0.75" x1="511" x2="511" y1="0" y2="14" /><text fill="#000000" font-family="Helvetica" font-size="10pt" stroke="none" text-anchor="end" transform="translate(8, 0)" writing-mode="lr" x="530" y="15">1675</text><text fill="#C0C0C0" font-family="Helvetica" font-size="10pt" stroke="none" text-anchor="end" transform="translate(8, 0)" writing-mode="lr" x="563" y="15">1680</text><text fill="#000000" font-family="Helvetica" font-size="10pt" stroke="none" text-anchor="end" transform="translate(8, 0)" writing-mode="lr" x="605" y="15">1687</text><text fill="#C0C0C0" font-family="Helvetica" font-size="10pt" stroke="none" text-anchor="end" transform="translate(8, 0)" writing-mode="lr" x="625" y="15">1690</text><text fill="#000000" font-family="Helvetica" font-size="10pt" stroke="none" text-anchor="end" transform="translate(8, 0)" writing-mode="lr" x="688" y="15">1700</text></g><g><line stroke="#000000" stroke-width="3" x1="0" x2="750" y1="0" y2="0" /><line stroke="#000000" stroke-width="2" x1="63" x2="63" y1="-5" y2="5" /><line stroke="#000000" stroke-width="2" x1="688" x2="688" y1="-5" y2="5" /><line stroke="#000000" stroke-width="2" x1="125" x2="125" y1="-5" y2="5" /><line stroke="#000000" stroke-width="2" x1="188" x2="188" y1="-5" y2="5" /><line stroke="#000000" stroke-width="2" x1="250" x2="250" y1="-5" y2="5" /><line stroke="#000000" stroke-width="2" x1="313" x2="313" y1="-5" y2="5" /><line stroke="#000000" stroke-width="2" x1="375" x2="375" y1="-5" y2="5" /><line stroke="#000000" stroke-width="2" x1="438" x2="438" y1="-5" y2="5" /><line stroke="#000000" stroke-width="2" x1="500" x2="500" y1="-5" y2="5" /><line stroke="#000000" stroke-width="2" x1="563" x2="563" y1="-5" y2="5" /><line stroke="#000000" stroke-width="2" x1="625" x2="625" y1="-5" y2="5" /></g><g><path d="M107,0 L107,-15 L97,-15" fill="none" stroke="#000000" stroke-width="1" /><text fill="#000000" font-family="Helvetica" font-size="10pt" stroke="none" text-anchor="end" x="94" y="-13.5">Hans Lippershey invented the telescope</text><circle cx="107" cy="0" fill="white" r="4" stroke="#000000" stroke-width="1" /><path d="M119,0 L119,-25 L109,-25" fill="none" stroke="#000000" stroke-width="1" /><text fill="#000000" font-family="Helvetica" font-size="10pt" stroke="none" text-anchor="end" x="106" y="-23.5">Galileo observed Jupiter's moon</text><circle cx="119" cy="0" fill="white" r="4" stroke="#000000" stroke-width="1" /><path d="M176,0 L176,-35 L166,-35" fill="none" stroke="#000000" stroke-width="1" /><text fill="#000000" font-family="Helvetica" font-size="10pt" stroke="none" text-anchor="end" x="163" y="-33.5">Kepler completed laws about planetary motion</text><circle cx="176" cy="0" fill="white" r="4" stroke="#000000" stroke-width="1" /><path d="M290,0 L290,-45 L280,-45" fill="none" stroke="#000000" stroke-width="1" /><text fill="#000000" font-family="Helvetica" font-size="10pt" stroke="none" text-anchor="end" x="277" y="-43.5">Descartes published La geometrie</text><circle cx="290" cy="0" fill="white" r="4" stroke="#000000" stroke-width="1" /><path d="M328,0 L328,-55 L318,-55" fill="none" stroke="#000000" stroke-width="1" /><text fill="#000000" font-family="Helvetica" font-size="10pt" stroke="none" text-anchor="end" x="315" y="-53.5">Torricelli invented the mercury barometer</text><circle cx="328" cy="0" fill="white" r="4" stroke="#000000" stroke-width="1" /><path d="M448,0 L448,-65 L438,-65" fill="none" stroke="#000000" stroke-width="1" /><text fill="#000000" font-family="Helvetica" font-size="10pt" stroke="none" text-anchor="end" x="435" y="-63.5">Boyle published law about pressure and volume of a gas</text><circle cx="448" cy="0" fill="white" r="4" stroke="#000000" stroke-width="1" /><path d="M511,0 L511,-75 L501,-75" fill="none" stroke="#000000" stroke-width="1" /><text fill="#000000" font-family="Helvetica" font-size="10pt" stroke="none" text-anchor="end" x="498" y="-73.5">Newton discoverd that white light is a spectrum of a mixture of distinct coloured rays</text><circle cx="511" cy="0" fill="white" r="4" stroke="#000000" stroke-width="1" /><path d="M530,0 L530,-85 L520,-85" fill="none" stroke="#000000" stroke-width="1" /><text fill="#000000" font-family="Helvetica" font-size="10pt" stroke="none" text-anchor="end" x="517" y="-83.5">Leibniz, Newton invented infinitesimal calculus</text><circle cx="530" cy="0" fill="white" r="4" stroke="#000000" stroke-width="1" /><path d="M605,0 L605,-95 L595,-95" fill="none" stroke="#000000" stroke-width="1" /><text fill="#000000" font-family="Helvetica" font-size="10pt" stroke="none" text-anchor="end" x="592" y="-93.5">Newton published Principia</text><circle cx="605" cy="0" fill="white" r="4" stroke="#000000" stroke-width="1" /></g></g></svg>