<svg baseProfile="full" height="855.0" version="1.1" width="750" xmlns="http://www.w3.org/2000/svg" xmlns:ev="http://www.w3.org/2001/xml-events" xmlns:xlink="http://www.w3.org/1999/xlink"><defs /><g><rect fill="#CD3F85" fill-opacity="0.15" height="156.0" width="314" x="59" y="0" /><line stroke="#CD3F85" stroke-dasharray="5 5" stroke-width="0.5" x1="59" x2="59" y1="0" y2="150" /><line stroke="#CD3F85" stroke-dasharray="5 5" stroke-width="0.5" x1="373" x2="373" y1="0" y2="150" /><line stroke="#CD3F85" stroke-width="0.75" x1="59" x2="373" y1="10" y2="10" /><text fill="#CD3F85" font-family="Helvetica" font-size="10pt" stroke="none" text-anchor="middle" x="216.0" y="8.5">16C</text><rect fill="#C00023" fill-opacity="0.15" height="156.0" width="315" x="373" y="0" /><line stroke="#C00023" stroke-dasharray="5 5" stroke-width="0.5" x1="373" x2="373" y1="0" y2="150" /><line stroke="#C00023" stroke-dasharray="5 5" stroke-width="0.5" x1="688" x2="688" y1="0" y2="150" /><line stroke="#C00023" stroke-width="0.75" x1="373" x2="688" y1="10" y2="10" /><text fill="#C00023" font-family="Helvetica" font-size="10pt" stroke="none" text-anchor="middle" x="530.5" y="8.5">17C</text></g><g transform="translate(0,150)"><g><text fill="#000000" font-family="Helvetica" font-size="10pt" stroke="none" text-anchor="end" transform="translate(8, 0)" writing-mode="lr" x="59" y="15">1500</text><text fill="#C0C0C0" font-family="Helvetica" font-size="10pt" stroke="none" text-anchor="end" transform="translate(8, 0)" writing-mode="lr" x="63" y="25">1501</text><line stroke="#C0C0C0" stroke-dasharray="3 3" stroke-width="0.75" x1="63" x2="63" y1="0" y2="14" /><text fill="#C0C0C0" font-family="Helvetica" font-size="10pt" stroke="none" text-anchor="end" transform="translate(8, 0)" writing-mode="lr" x="125" y="15">1520</text><text fill="#C0C0C0" font-family="Helvetica" font-size="10pt" stroke="none" text-anchor="end" transform="translate(8, 0)" writing-mode="lr" x="188" y="15">1540</text><text fill="#000000" font-family="Helvetica" font-size="10pt" stroke="none" text-anchor="end" transform="translate(8, 0)" writing-mode="lr" x="194" y="25">1543</text><line stroke="#000000" stroke-dasharray="3 3" stroke-width="0.75" x1="194" x2="194" y1="0" y2="14" /><text fill="#C0C0C0" font-family="Helvetica" font-size="10pt" stroke="none" text-anchor="end" transform="translate(8, 0)" writing-mode="lr" x="250" y="15">1560</text><text fill="#000000" font-family="Helvetica" font-size="10pt" stroke="none" text-anchor="end" transform="translate(8, 0)" writing-mode="lr" x="279" y="15">1570</text><text fill="#C0C0C0" font-family="Helvetica" font-size="10pt" stroke="none" text-anchor="end" transform="translate(8, 0)" writing-mode="lr" x="313" y="15">1580</text><text fill="#000000" font-family="Helvetica" font-size="10pt" stroke="none" text-anchor="end" transform="translate(8, 0)" writing-mode="lr" x="373" y="15">1600</text><text fill="#C0C0C0" font-family="Helvetica" font-size="10pt" stroke="none" text-anchor="end" transform="translate(8, 0)" writing-mode="lr" x="375" y="25">1600</text><line stroke="#C0C0C0" stroke-dasharray="3 3" stroke-width="0.75" x1="375" x2="375" y1="0" y2="14" /><text fill="#000000" font-family="Helvetica" font-size="10pt" stroke="none" text-anchor="end" transform="translate(8, 0)" writing-mode="lr" x="399" y="15">1608</text><text fill="#000000" font-family="Helvetica" font-size="10pt" stroke="none" text-anchor="end" transform="translate(8, 0)" writing-mode="lr" x="405" y="25">1610</text><line stroke="#000000" stroke-dasharray="3 3" stroke-width="0.75" x1="405" x2="405" y1="0" y2="14" /><text fill="#000000" font-family="Helvetica" font-size="10pt" stroke="none" text-anchor="end" transform="translate(8, 0)" writing-mode="lr" x="433" y="15">1619</text><text fill="#C0C0C0" font-family="Helvetica" font-size="10pt" stroke="none" text-anchor="end" transform="translate(8, 0)" writing-mode="lr" x="438" y="25">1620</text><line stroke="#C0C0C0" stroke-dasharray="3 3" stroke-width="0.75" x1="438" x2="438" y1="0" y2="14" /><text fill="#000000" font-family="Helvetica" font-size="10pt" stroke="none" text-anchor="end" transform="translate(8, 0)" writing-mode="lr" x="490" y="15">1637</text><text fill="#C0C0C0" font-family="Helvetica" font-size="10pt" stroke="none" text-anchor="end" transform="translate(8, 0)" writing-mode="lr" x="500" y="25">1640</text><line stroke="#C0C0C0" stroke-dasharray="3 3" stroke-width="0.75" x1="500" x2="500" y1="0" y2="14" /><text fill="#000000" font-family="Helvetica" font-size="10pt" stroke="none" text-anchor="end" transform="translate(8, 0)" writing-mode="lr" x="508" y="35">1643</text><line stroke="#000000" stroke-dasharray="3 3" stroke-width="0.75" x1="508" x2="508" y1="0" y2="24" /><text fill="#C0C0C0" font-family="Helvetica" font-size="10pt" stroke="none" text-anchor="end" transform="translate(8, 0)" writing-mode="lr" x="563" y="15">1660</text><text fill="#000000" font-family="Helvetica" font-size="10pt" stroke="none" text-anchor="end" transform="translate(8, 0)" writing-mode="lr" x="568" y="25">1662</text><line stroke="#000000" stroke-dasharray="3 3" stroke-width="0.75" x1="568" x2="568" y1="0" y2="14" /><text fill="#000000" font-family="Helvetica" font-size="10pt" stroke="none" text-anchor="end" transform="translate(8, 0)" writing-mode="lr" x="600" y="15">1672</text><text fill="#000000" font-family="Helvetica" font-size="10pt" stroke="none" text-anchor="end" transform="translate(8, 0)" writing-mode="lr" x="609" y="25">1675</text><line stroke="#000000" stroke-dasharray="3 3" stroke-width="0.75" x1="609" x2="609" y1="0" y2="14" /><text fill="#C0C0C0" font-family="Helvetica" font-size="10pt" stroke="none" text-anchor="end" transform="translate(8, 0)" writing-mode="lr" x="625" y="35">1680</text><line stroke="#C0C0C0" stroke-dasharray="3 3" stroke-width="0.75" x1="625" x2="625" y1="0" y2="24" /><text fill="#000000" font-family="Helvetica" font-size="10pt" stroke="none" text-anchor="end" transform="translate(8, 0)" writing-mode="lr" x="647" y="15">1687</text><text fill="#000000" font-family="Helvetica" font-size="10pt" stroke="none" text-anchor="end" transform="translate(8, 0)" writing-mode="lr" x="688" y="15">1700</text></g><g><line stroke="#000000" stroke-width="3" x1="0" x2="750" y1="0" y2="0" /><line stroke="#000000" stroke-width="2" x1="63" x2="63" y1="-5" y2="5" /><line stroke="#000000" stroke-width="2" x1="688" x2="688" y1="-5" y2="5" /><line stroke="#000000" stroke-width="2" x1="125" x2="125" y1="-5" y2="5" /><line stroke="#000000" stroke-width="2" x1="188" x2="188" y1="-5" y2="5" /><line stroke="#000000" stroke-width="2" x1="250" x2="250" y1="-5" y2="5" /><line stroke="#000000" stroke-width="2" x1="313" x2="313" y1="-5" y2="5" /><line stroke="#000000" stroke-width="2" x1="375" x2="375" y1="-5" y2="5" /><line stroke="#000000" stroke-width="2" x1="438" x2="438" y1="-5" y2="5" /><line stroke="#000000" stroke-width="2" x1="500" x2="500" y1="-5" y2="5" /><line stroke="#000000" stroke-width="2" x1="563" x2="563" y1="-5" y2="5" /><line stroke="#000000" stroke-width="2" x1="625" x2="625" y1="-5" y2="5" /></g><g><path d="M194,0 L194,-15 L184,-15" fill="none" stroke="#000000" stroke-width="1" /><text fill="#000000" font-family="Helvetica" font-size="10pt" stroke="none" text-anchor="end" x="181" y="-13.5">Vesalius pioneered research into human anatomy</text><circle cx="194" cy="0" fill="white" r="4" stroke="#000000" stroke-width="1" /><path d="M194,0 L194,-25 L184,-25" fill="none" stroke="#000000" stroke-width="1" /><text fill="#000000" font-family="Helvetica" font-size="10pt" stroke="none" text-anchor="end" x="181" y="-23.5">De revolutionibus of Copernicus is published</text><circle cx="194" cy="0" fill="white" r="4" stroke="#000000" stroke-width="1" /><path d="M279,0 L279,-35 L269,-35" fill="none" stroke="#000000" stroke-width="1" /><text fill="#000000" font-family="Helvetica" font-size="10pt" stroke="none" text-anchor="end" x="266" y="-33.5">Tycho Brahe wrote and recorded accurate astronomical observations(70s)</text><circle cx="279" cy="0" fill="white" r="4" stroke="#000000" stroke-width="1" /><path d="M399,0 L399,-45 L389,-45" fill="none" stroke="#000000" stroke-width="1" /><text fill="#000000" font-family="Helvetica" font-size="10pt" stroke="none" text-anchor="end" x="386" y="-43.5">Hans Lippershey invented the telescope</text><circle cx="399" cy="0" fill="white" r="4" stroke="#000000" stroke-width="1" /><path d="M405,0 L405,-55 L395,-55" fill="none" stroke="#000000" stroke-width="1" /><text fill="#000000" font-family="Helvetica" font-size="10pt" stroke="none" text-anchor="end" x="392" y="-53.5">Galileo observed Jupiter's moon</text><circle cx="405" cy="0" fill="white" r="4" stroke="#000000" stroke-width="1" /><path d="M433,0 L433,-65 L423,-65" fill="none" stroke="#000000" stroke-width="1" /><text fill="#000000" font-family="Helvetica" font-size="10pt" stroke="none" text-anchor="end" x="420" y="-63.5">Kepler completed laws about planetary motion</text><circle cx="433" cy="0" fill="white" r="4" stroke="#000000" stroke-width="1" /><path d="M490,0 L490,-75 L480,-75" fill="none" stroke="#000000" stroke-width="1" /><text fill="#000000" font-family="Helvetica" font-size="10pt" stroke="none" text-anchor="end" x="477" y="-73.5">Descartes published La geometrie</text><circle cx="490" cy="0" fill="white" r="4" stroke="#000000" stroke-width="1" /><path d="M508,0 L508,-85 L498,-85" fill="none" stroke="#000000" stroke-width="1" /><text fill="#000000" font-family="Helvetica" font-size="10pt" stroke="none" text-anchor="end" x="495" y="-83.5">Torricelli invented the mercury barometer</text><circle cx="508" cy="0" fill="white" r="4" stroke="#000000" stroke-width="1" /><path d="M568,0 L568,-95 L558,-95" fill="none" stroke="#000000" stroke-width="1" /><text fill="#000000" font-family="Helvetica" font-size="10pt" stroke="none" text-anchor="end" x="555" y="-93.5">Boyle published law about pressure and volume of a gas</text><circle cx="568" cy="0" fill="white" r="4" stroke="#000000" stroke-width="1" /><path d="M600,0 L600,-105 L590,-105" fill="none" stroke="#000000" stroke-width="1" /><text fill="#000000" font-family="Helvetica" font-size="10pt" stroke="none" text-anchor="end" x="587" y="-103.5">Newton discoverd that white light is a spectrum of a mixture of distinct coloured rays</text><circle cx="600" cy="0" fill="white" r="4" stroke="#000000" stroke-width="1" /><path d="M609,0 L609,-115 L599,-115" fill="none" stroke="#000000" stroke-width="1" /><text fill="#000000" font-family="Helvetica" font-size="10pt" stroke="none" text-anchor="end" x="596" y="-113.5">Leibniz, Newton invented infinitesimal calculus</text><circle cx="609" cy="0" fill="white" r="4" stroke="#000000" stroke-width="1" /><path d="M647,0 L647,-125 L637,-125" fill="none" stroke="#000000" stroke-width="1" /><text fill="#000000" font-family="Helvetica" font-size="10pt" stroke="none" text-anchor="end" x="634" y="-123.5">Newton published Principia</text><circle cx="647" cy="0" fill="white" r="4" stroke="#000000" stroke-width="1" /></g></g></svg>