<svg baseProfile="full" height="947" version="1.1" width="750" xmlns="http://www.w3.org/2000/svg" xmlns:ev="http://www.w3.org/2001/xml-events" xmlns:xlink="http://www.w3.org/1999/xlink"><defs /><g><rect fill="#C00023" fill-opacity="0.15" height="242" width="625" x="63" y="0" /><line stroke="#C00023" stroke-dasharray="5 5" stroke-width="0.5" x1="63" x2="63" y1="0" y2="230" /><line stroke="#C00023" stroke-dasharray="5 5" stroke-width="0.5" x1="688" x2="688" y1="0" y2="230" /><line stroke="#C00023" stroke-width="0.75" x1="63" x2="688" y1="10" y2="10" /><text fill="#C00023" font-family="Helvetica" font-size="10pt" stroke="none" text-anchor="middle" x="375.5" y="7">17C</text></g><g transform="translate(0,230)"><g><text fill="#000000" font-family="Helvetica" font-size="10pt" stroke="none" text-anchor="end" transform="translate(14, 0)" writing-mode="lr" x="63" y="30">1601</text><text fill="#000000" font-family="Helvetica" font-size="10pt" stroke="none" text-anchor="end" transform="translate(14, 0)" writing-mode="lr" x="107" y="30">1608</text><text fill="#000000" font-family="Helvetica" font-size="10pt" stroke="none" text-anchor="end" transform="translate(14, 0)" writing-mode="lr" x="119" y="50">1610</text><line stroke="#000000" stroke-dasharray="3 3" stroke-width="0.75" x1="119" x2="119" y1="0" y2="33" /><text fill="#C0C0C0" font-family="Helvetica" font-size="10pt" stroke="none" text-anchor="end" transform="translate(14, 0)" writing-mode="lr" x="125" y="70">1610</text><line stroke="#C0C0C0" stroke-dasharray="3 3" stroke-width="0.75" x1="125" x2="125" y1="0" y2="53" /><text fill="#000000" font-family="Helvetica" font-size="10pt" stroke="none" text-anchor="end" transform="translate(14, 0)" writing-mode="lr" x="176" y="30">1619</text><text fill="#C0C0C0" font-family="Helvetica" font-size="10pt" stroke="none" text-anchor="end" transform="translate(14, 0)" writing-mode="lr" x="188" y="50">1620</text><line stroke="#C0C0C0" stroke-dasharray="3 3" stroke-width="0.75" x1="188" x2="188" y1="0" y2="33" /><text fill="#C0C0C0" font-family="Helvetica" font-size="10pt" stroke="none" text-anchor="end" transform="translate(14, 0)" writing-mode="lr" x="250" y="30">1630</text><text fill="#000000" font-family="Helvetica" font-size="10pt" stroke="none" text-anchor="end" transform="translate(14, 0)" writing-mode="lr" x="290" y="30">1637</text><text fill="#C0C0C0" font-family="Helvetica" font-size="10pt" stroke="none" text-anchor="end" transform="translate(14, 0)" writing-mode="lr" x="313" y="50">1640</text><line stroke="#C0C0C0" stroke-dasharray="3 3" stroke-width="0.75" x1="313" x2="313" y1="0" y2="33" /><text fill="#000000" font-family="Helvetica" font-size="10pt" stroke="none" text-anchor="end" transform="translate(14, 0)" writing-mode="lr" x="328" y="70">1643</text><line stroke="#000000" stroke-dasharray="3 3" stroke-width="0.75" x1="328" x2="328" y1="0" y2="53" /><text fill="#C0C0C0" font-family="Helvetica" font-size="10pt" stroke="none" text-anchor="end" transform="translate(14, 0)" writing-mode="lr" x="375" y="30">1650</text><text fill="#C0C0C0" font-family="Helvetica" font-size="10pt" stroke="none" text-anchor="end" transform="translate(14, 0)" writing-mode="lr" x="438" y="30">1660</text><text fill="#000000" font-family="Helvetica" font-size="10pt" stroke="none" text-anchor="end" transform="translate(14, 0)" writing-mode="lr" x="448" y="50">1662</text><line stroke="#000000" stroke-dasharray="3 3" stroke-width="0.75" x1="448" x2="448" y1="0" y2="33" /><text fill="#C0C0C0" font-family="Helvetica" font-size="10pt" stroke="none" text-anchor="end" transform="translate(14, 0)" writing-mode="lr" x="500" y="30">1670</text><text fill="#000000" font-family="Helvetica" font-size="10pt" stroke="none" text-anchor="end" transform="translate(14, 0)" writing-mode="lr" x="511" y="50">1672</text><line stroke="#000000" stroke-dasharray="3 3" stroke-width="0.75" x1="511" x2="511" y1="0" y2="33" /><text fill="#000000" font-family="Helvetica" font-size="10pt" stroke="none" text-anchor="end" transform="translate(14, 0)" writing-mode="lr" x="530" y="70">1675</text><line stroke="#000000" stroke-dasharray="3 3" stroke-width="0.75" x1="530" x2="530" y1="0" y2="53" /><text fill="#C0C0C0" font-family="Helvetica" font-size="10pt" stroke="none" text-anchor="end" transform="translate(14, 0)" writing-mode="lr" x="563" y="90">1680</text><line stroke="#C0C0C0" stroke-dasharray="3 3" stroke-width="0.75" x1="563" x2="563" y1="0" y2="73" /><text fill="#000000" font-family="Helvetica" font-size="10pt" stroke="none" text-anchor="end" transform="translate(14, 0)" writing-mode="lr" x="605" y="30">1687</text><text fill="#C0C0C0" font-family="Helvetica" font-size="10pt" stroke="none" text-anchor="end" transform="translate(14, 0)" writing-mode="lr" x="625" y="50">1690</text><line stroke="#C0C0C0" stroke-dasharray="3 3" stroke-width="0.75" x1="625" x2="625" y1="0" y2="33" /><text fill="#000000" font-family="Helvetica" font-size="10pt" stroke="none" text-anchor="end" transform="translate(14, 0)" writing-mode="lr" x="688" y="30">1700</text></g><g><line stroke="#000000" stroke-width="3" x1="0" x2="750" y1="0" y2="0" /><line stroke="#000000" stroke-width="2" x1="63" x2="63" y1="-5" y2="5" /><line stroke="#000000" stroke-width="2" x1="688" x2="688" y1="-5" y2="5" /><line stroke="#000000" stroke-width="2" x1="125" x2="125" y1="-5" y2="5" /><line stroke="#000000" stroke-width="2" x1="188" x2="188" y1="-5" y2="5" /><line stroke="#000000" stroke-width="2" x1="250" x2="250" y1="-5" y2="5" /><line stroke="#000000" stroke-width="2" x1="313" x2="313" y1="-5" y2="5" /><line stroke="#000000" stroke-width="2" x1="375" x2="375" y1="-5" y2="5" /><line stroke="#000000" stroke-width="2" x1="438" x2="438" y1="-5" y2="5" /><line stroke="#000000" stroke-width="2" x1="500" x2="500" y1="-5" y2="5" /><line stroke="#000000" stroke-width="2" x1="563" x2="563" y1="-5" y2="5" /><line stroke="#000000" stroke-width="2" x1="625" x2="625" y1="-5" y2="5" /></g><g><path d="M107,0 L107,-30 L87,-30" fill="none" stroke="#000000" stroke-width="1" /><text fill="#000000" font-family="Helvetica" font-size="10pt" stroke="none" text-anchor="end" x="81" y="-27">한스 리퍼세이, 망원경 발명</text><circle cx="107" cy="0" fill="white" r="4" stroke="#000000" stroke-width="1" /><path d="M119,0 L119,-50 L99,-50" fill="none" stroke="#000000" stroke-width="1" /><text fill="#000000" font-family="Helvetica" font-size="10pt" stroke="none" text-anchor="end" x="93" y="-47">갈릴레오, 목성의 위성을 발견</text><circle cx="119" cy="0" fill="white" r="4" stroke="#000000" stroke-width="1" /><path d="M176,0 L176,-70 L156,-70" fill="none" stroke="#000000" stroke-width="1" /><text fill="#000000" font-family="Helvetica" font-size="10pt" stroke="none" text-anchor="end" x="150" y="-67">케플러, 행성운동법칙을 완성</text><circle cx="176" cy="0" fill="white" r="4" stroke="#000000" stroke-width="1" /><path d="M290,0 L290,-90 L270,-90" fill="none" stroke="#000000" stroke-width="1" /><text fill="#000000" font-family="Helvetica" font-size="10pt" stroke="none" text-anchor="end" x="264" y="-87">데카르트, 소논문 "기하학" 출판</text><circle cx="290" cy="0" fill="white" r="4" stroke="#000000" stroke-width="1" /><path d="M328,0 L328,-110 L308,-110" fill="none" stroke="#000000" stroke-width="1" /><text fill="#000000" font-family="Helvetica" font-size="10pt" stroke="none" text-anchor="end" x="302" y="-107">토리첼리, 수은기압계 발명</text><circle cx="328" cy="0" fill="white" r="4" stroke="#000000" stroke-width="1" /><path d="M448,0 L448,-130 L428,-130" fill="none" stroke="#000000" stroke-width="1" /><text fill="#000000" font-family="Helvetica" font-size="10pt" stroke="none" text-anchor="end" x="422" y="-127">보일, 이상기체의 법칙 출판</text><circle cx="448" cy="0" fill="white" r="4" stroke="#000000" stroke-width="1" /><path d="M511,0 L511,-150 L491,-150" fill="none" stroke="#000000" stroke-width="1" /><text fill="#000000" font-family="Helvetica" font-size="10pt" stroke="none" text-anchor="end" x="485" y="-147">뉴턴, 백색광이 다양한 색의 광선으로 이루어짐을 발견</text><circle cx="511" cy="0" fill="white" r="4" stroke="#000000" stroke-width="1" /><path d="M530,0 L530,-170 L510,-170" fill="none" stroke="#000000" stroke-width="1" /><text fill="#000000" font-family="Helvetica" font-size="10pt" stroke="none" text-anchor="end" x="504" y="-167">라이프니츠, 뉴턴, 미적분을 발명</text><circle cx="530" cy="0" fill="white" r="4" stroke="#000000" stroke-width="1" /><path d="M605,0 L605,-190 L585,-190" fill="none" stroke="#000000" stroke-width="1" /><text fill="#000000" font-family="Helvetica" font-size="10pt" stroke="none" text-anchor="end" x="579" y="-187">뉴턴, 프린키피아를 출판</text><circle cx="605" cy="0" fill="white" r="4" stroke="#000000" stroke-width="1" /></g></g></svg>